REM MD5 2bfbbab3cd213aa7bc537c5c741de2a9
FILE "Moto Racer (France) (Demo).bin" BINARY
  TRACK 01 MODE2/2352
    INDEX 01 00:00:00
  TRACK 02 AUDIO
    INDEX 00 01:28:71
    INDEX 01 01:31:71
  TRACK 03 AUDIO
    INDEX 00 04:35:64
    INDEX 01 04:37:64
REM LEADOUT 08:08:65
